<?xml version="1.0" encoding="UTF-8" ?>
<!DOCTYPE svg PUBLIC "-//W3C//DTD SVG 1.1//EN" "http://www.w3.org/Graphics/SVG/1.1/DTD/svg11.dtd">
<svg width="512pt" height="512pt" viewBox="0 0 512 512" version="1.1" xmlns="http://www.w3.org/2000/svg">
<g id="#000000ff">
<path fill="#000000" opacity="1.00" d=" M 320.00 175.85 C 351.99 154.50 383.98 133.16 416.00 111.85 C 439.67 127.59 463.30 143.39 486.96 159.14 C 489.71 161.04 492.47 162.96 495.51 164.39 C 500.59 168.76 506.55 171.95 512.00 175.83 L 512.00 336.12 C 480.05 357.53 448.01 378.82 416.00 400.15 C 383.98 378.83 351.96 357.50 319.98 336.12 C 320.02 325.42 319.99 314.71 320.00 304.00 C 275.81 303.99 231.62 304.00 187.44 304.00 C 177.20 293.56 166.72 283.36 156.49 272.91 C 146.27 283.41 135.73 293.60 125.49 304.09 C 115.27 293.59 104.73 283.40 94.49 272.91 C 84.28 283.37 73.80 293.57 63.56 304.00 C 57.19 304.00 50.82 304.00 44.45 304.00 C 41.78 301.18 38.76 298.66 36.57 295.43 C 31.87 289.52 25.52 285.08 21.15 278.88 C 16.46 273.27 10.40 268.89 6.16 262.89 C 4.34 260.52 1.99 258.66 0.00 256.46 L 0.00 255.43 C 2.08 253.36 4.35 251.45 6.15 249.12 C 10.93 242.34 18.07 237.66 22.85 230.88 C 27.10 225.81 32.43 221.74 36.57 216.57 C 38.76 213.33 41.78 210.81 44.45 208.00 C 136.30 207.99 228.15 208.01 320.00 208.00 C 320.00 197.28 320.00 186.56 320.00 175.85 M 448.00 176.19 C 448.00 228.51 447.99 280.82 448.01 333.14 C 458.69 326.06 469.34 318.93 480.00 311.83 C 479.99 274.19 480.00 236.55 480.00 198.90 C 480.41 197.39 478.84 196.78 477.91 196.07 C 467.90 189.50 458.00 182.78 448.00 176.19 Z" />
</g>
</svg>
